<svg width="24" height="24" viewBox="0 0 24 24" fill="none" xmlns="http://www.w3.org/2000/svg">
<g clip-path="url(#clip0_3601_2165)">
<path fill-rule="evenodd" clip-rule="evenodd" d="M7.83333 19.5C7.83333 18.5795 8.57952 17.8333 9.5 17.8333C10.4205 17.8333 11.1667 18.5795 11.1667 19.5C11.1667 20.4205 10.4205 21.1667 9.5 21.1667C8.57952 21.1667 7.83333 20.4205 7.83333 19.5Z" fill="#151515"/>
<path fill-rule="evenodd" clip-rule="evenodd" d="M17 19.5C17 18.5795 17.7462 17.8333 18.6667 17.8333C19.5871 17.8333 20.3333 18.5795 20.3333 19.5C20.3333 20.4205 19.5871 21.1667 18.6667 21.1667C17.7462 21.1667 17 20.4205 17 19.5Z" fill="#151515"/>
<path fill-rule="evenodd" clip-rule="evenodd" d="M2 2.83333C2 2.3731 2.3731 2 2.83333 2H6.16667C6.56386 2 6.90584 2.28032 6.98379 2.66979L7.68369 6.16667H21.1667C21.415 6.16667 21.6504 6.27744 21.8087 6.4688C21.9671 6.66015 22.0318 6.91215 21.9852 7.15611L20.6507 14.154C20.5364 14.7295 20.2233 15.2465 19.7663 15.6144C19.3115 15.9805 18.743 16.1758 18.1595 16.1667H10.0739C9.49031 16.1758 8.92184 15.9805 8.46707 15.6144C8.01021 15.2466 7.6972 14.7299 7.58277 14.1547C7.58273 14.1545 7.58282 14.155 7.58277 14.1547L6.19066 7.19934C6.18501 7.17633 6.18032 7.15295 6.17663 7.12923L5.4836 3.66667H2.83333C2.3731 3.66667 2 3.29357 2 2.83333ZM8.01727 7.83333L9.21737 13.8293C9.25547 14.0212 9.35983 14.1935 9.51218 14.3161C9.66453 14.4388 9.85516 14.5039 10.0507 14.5002L10.0667 14.5H18.1667L18.1826 14.5002C18.3782 14.5039 18.5688 14.4388 18.7212 14.3161C18.8728 14.194 18.9769 14.0228 19.0154 13.832L20.1594 7.83333H8.01727Z" fill="#151515"/>
</g>
<defs>
<clipPath id="clip0_3601_2165">
<rect width="20" height="20" fill="white" transform="translate(2 2)"/>
</clipPath>
</defs>
</svg>
